<!DOCTYPE svg PUBLIC "-//W3C//DTD SVG 1.1//EN" "http://www.w3.org/Graphics/SVG/1.1/DTD/svg11.dtd">
<!-- Uploaded to: SVG Repo, www.svgrepo.com, Transformed by: SVG Repo Mixer Tools -->
<svg height="800px" width="800px" version="1.1" id="Layer_1" xmlns="http://www.w3.org/2000/svg" xmlns:xlink="http://www.w3.org/1999/xlink" viewBox="0 0 490 490" xml:space="preserve" fill="#000000">
<g id="SVGRepo_bgCarrier" stroke-width="0"/>
<g id="SVGRepo_tracerCarrier" stroke-linecap="round" stroke-linejoin="round"/>
<g id="SVGRepo_iconCarrier"> <g> <g id="XMLID_34_"> <g> <path style="fill:#FFFFFF;" d="M245,440c-55.098,0-104.902-22.9-140.298-59.697C70.801,345.303,50,297.5,50,245 c0-51.299,19.8-97.998,52.202-132.793C137.798,73.906,188.599,50,245,50v60v25v115l75,75l20,15l42.9,42.9 C347.598,418.203,298.799,440,245,440z"/> <path style="fill:#F26522;" d="M440,245c0,53.799-21.797,102.598-57.1,137.9L340,340l-20-15l-75-75V135v-25V50 C352.695,50,440,137.305,440,245z"/> <path style="fill:#878787;" d="M382.9,382.9C418.203,347.598,440,298.799,440,245c0-107.695-87.305-195-195-195 c-56.401,0-107.202,23.906-142.798,62.207C69.8,147.002,50,193.701,50,245c0,52.5,20.801,100.303,54.702,135.303 C140.098,417.1,189.902,440,245,440C298.799,440,347.598,418.203,382.9,382.9z M245,10c129.805,0,235,105.195,235,235 S374.805,480,245,480C115.2,480,10,374.805,10,245S115.2,10,245,10z"/> </g> <g> <path style="fill:#000000;" d="M418.248,71.752C371.977,25.482,310.45,0,245,0C179.551,0,118.025,25.482,71.754,71.752 S0,179.55,0,245s25.483,126.978,71.754,173.248S179.551,490,245,490c65.45,0,126.977-25.482,173.248-71.752 C464.518,371.978,490,310.45,490,245S464.518,118.022,418.248,71.752z M404.105,404.105C361.613,446.599,305.108,470,245,470 c-60.106,0-116.611-23.401-159.104-65.895C43.402,361.612,20,305.107,20,245S43.402,128.388,85.896,85.895 C128.389,43.401,184.894,20,245,20c60.108,0,116.613,23.401,159.105,65.895C446.598,128.387,470,184.892,470,245 S446.598,361.613,404.105,404.105z"/> <path style="fill:#000000;" d="M245,40c-28.99,0-57.004,5.923-83.265,17.604c-25.381,11.29-47.875,27.37-66.851,47.788 C59.492,143.398,40,192.979,40,245c0,53.444,20.427,103.966,57.495,142.235c18.881,19.629,41.081,35.067,65.983,45.887 C189.254,444.321,216.682,450,245,450c54.776,0,106.262-21.318,144.971-60.028C428.682,351.262,450,299.776,450,245 C450,131.963,358.038,40,245,40z M118.888,380.254l33.183-33.184l-14.143-14.141l-32.913,32.912 C78.093,334.834,62.46,296.11,60.274,255H110v-20H60.277c2.128-39.816,16.933-77.588,42.396-108.184l35.256,35.255l14.142-14.143 l-35.805-35.801c15.639-15.194,33.629-27.368,53.597-36.25c20.655-9.188,42.523-14.423,65.137-15.613V110h20V60.272 c44.742,2.396,85.306,20.766,116.094,49.491l-38.165,38.165l14.143,14.143l37.904-37.904 c26.002,30.081,42.491,68.599,44.752,110.833H380v20h49.728c-2.239,42.353-18.675,82.05-47.02,113.565l-35.637-35.637 l-14.143,14.143l35.637,35.637c-31.516,28.346-71.212,44.781-113.565,47.02V380h-20v49.731 C191.372,427.436,150.769,410.141,118.888,380.254z"/> <path style="fill:#000000;" d="M312.929,332.071l14.143-14.143L255,245.857V135h-20v115c0,2.652,1.054,5.195,2.929,7.071 L312.929,332.071z"/> </g> </g> </g> </g>
</svg>